<svg width="104" height="104" viewBox="0 0 104 104" fill="none" xmlns="http://www.w3.org/2000/svg">
<g filter="url(#filter0_d_749_6162)">
<path d="M52 36C45.388 36 40 41.388 40 48C40 54.612 45.388 60 52 60C58.612 60 64 54.612 64 48C64 41.388 58.612 36 52 36ZM56.704 48.9H47.104C46.612 48.9 46.204 48.492 46.204 48C46.204 47.508 46.612 47.1 47.104 47.1H56.704C57.196 47.1 57.604 47.508 57.604 48C57.604 48.492 57.208 48.9 56.704 48.9Z" fill="#118596"/>
</g>
<defs>
<filter id="filter0_d_749_6162" x="0" y="0" width="104" height="104" filterUnits="userSpaceOnUse" color-interpolation-filters="sRGB">
<feFlood flood-opacity="0" result="BackgroundImageFix"/>
<feColorMatrix in="SourceAlpha" type="matrix" values="0 0 0 0 0 0 0 0 0 0 0 0 0 0 0 0 0 0 127 0" result="hardAlpha"/>
<feOffset dy="4"/>
<feGaussianBlur stdDeviation="20"/>
<feComposite in2="hardAlpha" operator="out"/>
<feColorMatrix type="matrix" values="0 0 0 0 0.109804 0 0 0 0 0.168627 0 0 0 0 0.188235 0 0 0 0.1 0"/>
<feBlend mode="normal" in2="BackgroundImageFix" result="effect1_dropShadow_749_6162"/>
<feBlend mode="normal" in="SourceGraphic" in2="effect1_dropShadow_749_6162" result="shape"/>
</filter>
</defs>
</svg>
